{
	"accessors" : 
	[
		{
			"bufferView" : 2,
			"byteOffset" : 0,
			"componentType" : 5126,
			"count" : 996,
			"max" : 
			[
				1,
				0.835527777671814,
				0.7226724624633789,
				1
			],
			"min" : 
			[
				0.05637409910559654,
				0.05284162983298302,
				0.0328759141266346,
				1
			],
			"name" : "accessor_color_m0-PolyPaper17_-48532",
			"type" : "VEC4"
		},
		{
			"bufferView" : 2,
			"byteOffset" : 15936,
			"componentType" : 5126,
			"count" : 1224,
			"max" : 
			[
				0.6800203323364258,
				0.6800203323364258,
				0.6800203323364258,
				0.2509804
			],
			"min" : 
			[
				0.6800203323364258,
				0.6800203323364258,
				0.6800203323364258,
				0.2509804
			],
			"name" : "accessor_color_m1-PolyGlass24_-48958",
			"type" : "VEC4"
		},
		{
			"bufferView" : 0,
			"byteOffset" : 0,
			"componentType" : 5123,
			"count" : 1572,
			"max" : 
			[
				995
			],
			"min" : 
			[
				0
			],
			"name" : "accessor_indices_0_m0-PolyPaper17_-48532",
			"type" : "SCALAR"
		},
		{
			"bufferView" : 0,
			"byteOffset" : 3144,
			"componentType" : 5123,
			"count" : 1728,
			"max" : 
			[
				1223
			],
			"min" : 
			[
				0
			],
			"name" : "accessor_indices_0_m1-PolyGlass24_-48958",
			"type" : "SCALAR"
		},
		{
			"bufferView" : 1,
			"byteOffset" : 11952,
			"componentType" : 5126,
			"count" : 996,
			"max" : 
			[
				1,
				1,
				1
			],
			"min" : 
			[
				-1,
				-1,
				-1
			],
			"name" : "accessor_normal_m0-PolyPaper17_-48532",
			"type" : "VEC3"
		},
		{
			"bufferView" : 1,
			"byteOffset" : 38592,
			"componentType" : 5126,
			"count" : 1224,
			"max" : 
			[
				0.9659261,
				0.965927,
				0.9837443
			],
			"min" : 
			[
				-0.9659261,
				-0.9659261,
				-0.9837443
			],
			"name" : "accessor_normal_m1-PolyGlass24_-48958",
			"type" : "VEC3"
		},
		{
			"bufferView" : 1,
			"byteOffset" : 0,
			"componentType" : 5126,
			"count" : 996,
			"max" : 
			[
				0.2250093,
				2.220031,
				1.290002
			],
			"min" : 
			[
				-0.05499102,
				0.489973,
				1.049985
			],
			"name" : "accessor_position_m0-PolyPaper17_-48532",
			"type" : "VEC3"
		},
		{
			"bufferView" : 1,
			"byteOffset" : 23904,
			"componentType" : 5126,
			"count" : 1224,
			"max" : 
			[
				0.1500205,
				2.169059,
				1.277161
			],
			"min" : 
			[
				0.03183293,
				1.750895,
				1.147133
			],
			"name" : "accessor_position_m1-PolyGlass24_-48958",
			"type" : "VEC3"
		}
	],
	"asset" : 
	{
		"copyright" : "Unknown",
		"generator" : "glTF 1-to-2 Upgrader for Google Blocks",
		"version" : "2.0"
	},
	"bufferViews" : 
	[
		{
			"buffer" : 0,
			"byteLength" : 6600,
			"byteOffset" : 0,
			"name" : "ushortBufferView",
			"target" : 34963
		},
		{
			"buffer" : 0,
			"byteLength" : 53280,
			"byteOffset" : 6600,
			"byteStride" : 12,
			"name" : "vec3BufferView",
			"target" : 34962
		},
		{
			"buffer" : 0,
			"byteLength" : 35520,
			"byteOffset" : 59880,
			"byteStride" : 16,
			"name" : "vec4BufferView",
			"target" : 34962
		}
	],
	"buffers" : 
	[
		{
			"byteLength" : 95400,
			"name" : "model",
			"uri" : "model.bin"
		}
	],
	"materials" : 
	[
		{
			"alphaMode" : "OPAQUE",
			"doubleSided" : false,
			"name" : "BlocksPaper",
			"pbrMetallicRoughness" : 
			{
				"baseColorFactor" : 
				[
					1,
					1,
					1,
					1
				],
				"metallicFactor" : 0,
				"roughnessFactor" : 0.6
			}
		},
		{
			"alphaMode" : "BLEND",
			"doubleSided" : false,
			"name" : "BlocksGlass",
			"pbrMetallicRoughness" : 
			{
				"baseColorFactor" : 
				[
					0.2,
					0.2,
					1,
					0.3
				],
				"metallicFactor" : 1,
				"roughnessFactor" : 0.4
			}
		},
		{
			"alphaMode" : "OPAQUE",
			"doubleSided" : true,
			"name" : "BlocksGem",
			"pbrMetallicRoughness" : 
			{
				"baseColorFactor" : 
				[
					1,
					0.4,
					1,
					1
				],
				"metallicFactor" : 0,
				"roughnessFactor" : 0.1
			}
		}
	],
	"meshes" : 
	[
		{
			"name" : "mesh_m0-PolyPaper17_-48532",
			"primitives" : 
			[
				{
					"attributes" : 
					{
						"COLOR_0" : 0,
						"NORMAL" : 4,
						"POSITION" : 6
					},
					"indices" : 2,
					"material" : 0,
					"mode" : 4
				}
			]
		},
		{
			"name" : "mesh_m1-PolyGlass24_-48958",
			"primitives" : 
			[
				{
					"attributes" : 
					{
						"COLOR_0" : 1,
						"NORMAL" : 5,
						"POSITION" : 7
					},
					"indices" : 3,
					"material" : 1,
					"mode" : 4
				}
			]
		}
	],
	"nodes" : 
	[
		{
			"matrix" : 
			[
				1,
				0,
				0,
				0,
				0,
				1,
				0,
				0,
				0,
				0,
				1,
				0,
				0,
				0,
				0,
				1
			],
			"mesh" : 1,
			"name" : "node_MeshObject817549696-PolyGlass24"
		},
		{
			"matrix" : 
			[
				1,
				0,
				0,
				0,
				0,
				1,
				0,
				0,
				0,
				0,
				1,
				0,
				0,
				0,
				0,
				1
			],
			"mesh" : 0,
			"name" : "node_MeshObject938227712-PolyPaper17"
		}
	],
	"scene" : 0,
	"scenes" : 
	[
		{
			"extras" : {},
			"name" : "defaultScene",
			"nodes" : 
			[
				1,
				0
			]
		}
	]
}