{
  "accessors": [
    {
      "bufferView": 0,
      "byteOffset": 0,
      "componentType": 5123,
      "count": 1428,
      "max": [
        833.0
      ],
      "min": [
        0.0
      ],
      "name": "buffer-0-group-0-mesh-0-indices",
      "type": "SCALAR"
    },
    {
      "bufferView": 1,
      "byteOffset": 0,
      "componentType": 5126,
      "count": 834,
      "max": [
        1.7829819917678833,
        1.936048984527588,
        4.741549015045166
      ],
      "min": [
        -1.7827190160751343,
        -2.626081943511963,
        -4.447076797485352
      ],
      "name": "buffer-0-group-0-mesh-0-position",
      "type": "VEC3"
    },
    {
      "bufferView": 1,
      "byteOffset": 10008,
      "componentType": 5126,
      "count": 834,
      "max": [
        1.0,
        0.9983165264129639,
        0.9992625117301941
      ],
      "min": [
        -1.0,
        -1.0,
        -0.984815776348114
      ],
      "name": "buffer-0-group-0-mesh-0-normal",
      "type": "VEC3"
    },
    {
      "bufferView": 0,
      "byteOffset": 2856,
      "componentType": 5123,
      "count": 180,
      "max": [
        107.0
      ],
      "min": [
        0.0
      ],
      "name": "buffer-0-group-1-mesh-0-indices",
      "type": "SCALAR"
    },
    {
      "bufferView": 1,
      "byteOffset": 20016,
      "componentType": 5126,
      "count": 108,
      "max": [
        0.6047369837760925,
        1.0149110555648804,
        3.476227045059204
      ],
      "min": [
        -1.1315679550170898,
        -1.3931050300598145,
        -4.620777130126953
      ],
      "name": "buffer-0-group-1-mesh-0-position",
      "type": "VEC3"
    },
    {
      "bufferView": 1,
      "byteOffset": 21312,
      "componentType": 5126,
      "count": 108,
      "max": [
        0.9999797940254211,
        0.9285456538200378,
        0.9284421801567078
      ],
      "min": [
        -0.9999797940254211,
        -0.9285456538200378,
        -0.9245786666870117
      ],
      "name": "buffer-0-group-1-mesh-0-normal",
      "type": "VEC3"
    },
    {
      "bufferView": 0,
      "byteOffset": 3216,
      "componentType": 5123,
      "count": 444,
      "max": [
        259.0
      ],
      "min": [
        0.0
      ],
      "name": "buffer-0-group-2-mesh-0-indices",
      "type": "SCALAR"
    },
    {
      "bufferView": 1,
      "byteOffset": 22608,
      "componentType": 5126,
      "count": 260,
      "max": [
        1.2824920415878296,
        2.664267063140869,
        4.094639778137207
      ],
      "min": [
        -1.2824920415878296,
        0.2857069969177246,
        -4.296177864074707
      ],
      "name": "buffer-0-group-2-mesh-0-position",
      "type": "VEC3"
    },
    {
      "bufferView": 1,
      "byteOffset": 25728,
      "componentType": 5126,
      "count": 260,
      "max": [
        0.9699008464813232,
        0.9929899573326111,
        0.9238266348838806
      ],
      "min": [
        -0.9699008464813232,
        -0.9900094270706177,
        -0.99330735206604
      ],
      "name": "buffer-0-group-2-mesh-0-normal",
      "type": "VEC3"
    }
  ],
  "asset": {
    "generator": "Obj2GltfConverter",
    "version": "2.0"
  },
  "bufferViews": [
    {
      "buffer": 0,
      "byteLength": 4104,
      "byteOffset": 0,
      "name": "buffer-0-bufferview-ushort",
      "target": 34963
    },
    {
      "buffer": 0,
      "byteLength": 28848,
      "byteOffset": 4104,
      "byteStride": 12,
      "name": "buffer-0-bufferview-vec3",
      "target": 34962
    }
  ],
  "buffers": [
    {
      "byteLength": 32952,
      "name": "buffer-0",
      "uri": "Motorcycle.bin"
    }
  ],
  "materials": [
    {
      "alphaMode": "OPAQUE",
      "doubleSided": true,
      "name": "Black",
      "pbrMetallicRoughness": {
        "baseColorFactor": [
          0.023278,
          0.023278,
          0.023278,
          1.0
        ],
        "metallicFactor": 0.0,
        "roughnessFactor": 0.7448017359246658
      }
    },
    {
      "alphaMode": "OPAQUE",
      "doubleSided": true,
      "name": "Silver",
      "pbrMetallicRoughness": {
        "baseColorFactor": [
          0.578424,
          0.578424,
          0.578424,
          1.0
        ],
        "metallicFactor": 0.0,
        "roughnessFactor": 0.7448017359246658
      }
    },
    {
      "alphaMode": "OPAQUE",
      "doubleSided": true,
      "name": "Blue",
      "pbrMetallicRoughness": {
        "baseColorFactor": [
          0.074318,
          0.14338,
          0.254825,
          1.0
        ],
        "metallicFactor": 0.0,
        "roughnessFactor": 0.7448017359246658
      }
    }
  ],
  "meshes": [
    {
      "name": "buffer-0-mesh-0",
      "primitives": [
        {
          "attributes": {
            "POSITION": 1,
            "NORMAL": 2
          },
          "indices": 0,
          "material": 0,
          "mode": 4
        },
        {
          "attributes": {
            "POSITION": 4,
            "NORMAL": 5
          },
          "indices": 3,
          "material": 1,
          "mode": 4
        },
        {
          "attributes": {
            "POSITION": 7,
            "NORMAL": 8
          },
          "indices": 6,
          "material": 2,
          "mode": 4
        }
      ]
    }
  ],
  "nodes": [
    {
      "mesh": 0,
      "name": "node-0"
    }
  ],
  "scenes": [
    {
      "name": "scene-0",
      "nodes": [
        0
      ]
    }
  ]
}