mtllib materials.mtl
v -0.31 -0.3099999 0.3099999
v -0.31 0.3100001 0.3099999
v -0.2033911 0.203391 0.3599999
v -0.203391 -0.203391 0.36
v -0.3099999 -0.3099999 -0.31
v 0.31 -0.31 -0.3099999
v 0.2033911 -0.203391 -0.3499999
v -0.2033909 -0.203391 -0.35
v -0.3499999 -0.2033909 -0.2033909
v -0.3500001 -0.2033909 0.203391
v 0.3099999 -0.31 0.31
v 0.3099999 0.3099999 0.31
v 0.3599999 0.203391 0.203391
v 0.36 -0.2033911 0.203391
v 0.2033909 -0.4 0.203391
v -0.203391 -0.4 0.203391
v -0.3099999 0.3100001 -0.31
v -0.4538709 0.4700001 -0.4538711
v -0.453871 0.4700001 0.453871
v 0.203391 -0.4 -0.2033909
v -0.2033909 -0.3999999 -0.203391
v 0.2033909 -0.4600001 0.203391
v -0.203391 -0.46 0.203391
v -0.3499999 0.2033912 -0.203391
v -0.3500001 0.2033911 0.2033909
v 0.31 0.3099999 -0.3099999
v 0.36 0.203391 -0.2033909
v 0.36 -0.2033911 -0.2033909
v 0.2033908 0.203391 0.3599999
v 0.2033909 -0.2033911 0.36
v 0.203391 0.203391 -0.35
v -0.3099999 0.3531704 -0.4250586
v 0.3100001 0.3531703 -0.4250585
v -0.2033909 0.203391 -0.35
v 0.203391 -0.4600001 -0.2033909
v -0.2033909 -0.46 -0.2033909
v 0.3275631 -0.5200002 0.3275633
v -0.3275633 -0.52 0.3275633
v 0.3275633 -0.5200002 -0.3275631
v -0.327563 -0.52 -0.3275631
v 0.3275627 -2.48 0.3275633
v -0.3275637 -2.48 0.3275633
v 0.4775634 -0.5200003 -0.327563
v 0.4775634 -0.5200004 -0.1637814
v 0.4775633 -0.5200005 1.527369E-07
v 0.4775632 -0.5200005 0.1637818
v 0.4775631 -0.5200003 0.3275633
v 1.937151E-07 -1.01 -0.327563
v 0.3275633 -1.500001 -0.327563
v -0.4775632 -0.5200002 0.3275634
v -0.4775629 -0.5199999 -0.327563
v 0.327563 -2.48 -0.3275631
v -0.3275634 -2.48 -0.3275631
v -0.4775632 -2.480001 0.3275638
v -0.4775632 -1.500001 0.3275637
v -0.4775632 -1.010001 0.3275636
v -0.4775629 -2.480001 -0.3275626
v -0.3275631 -1.5 -0.327563
v -0.4775628 -1.01 -0.3275627
v -0.4775628 -1.500001 -0.3275627
v 0.4775632 -2.480001 -0.327563
v 0.4775634 -1.500001 -0.3275629
v 0.4775635 -1.010001 -0.327563
v 0.4775628 -2.480001 0.3275634
v 0.4775631 -1.010001 0.3275634
v 0.477563 -1.500001 0.3275635
v 0.4775633 -1.010001 0.1637819
v 0.4775634 -1.010001 2.719462E-07
v 0.4775635 -1.010001 -0.1637813
v 0.4538711 0.4699999 -0.453871
v 0.4538709 0.4699999 0.453871
v -0.2033908 0.2465613 -0.4650585
v 0.2033911 0.2465612 -0.4650585
vn -0.4246227 3.609287E-08 0.9053705
vn 1.715746E-07 -0.3512898 -0.9362668
vn -0.9362668 -0.3512897 -2.343297E-07
vn 0.9053707 1.026276E-09 0.4246223
vn -1.701064E-07 -0.7641196 0.6450747
vn -0.7435924 -0.6686332 -7.083095E-08
vn 0.6450747 -0.7641196 1.664602E-07
vn 1.180973E-07 -0.7641196 -0.6450745
vn -0.6450745 -0.7641197 -4.587416E-08
vn -1.808306E-07 4.967051E-07 1
vn -0.9362668 -4.850856E-08 -0.3512897
vn -0.9362663 0.3512912 -2.056535E-07
vn -0.9362665 3.275611E-08 0.3512904
vn -1 -1.166855E-07 -3.986049E-07
vn 0.9053707 0.4246221 1.352632E-07
vn 0.9053708 -1.326192E-08 -0.424622
vn 0.9053705 -0.4246226 1.515487E-07
vn 1 2.177858E-08 1.055503E-07
vn -1.464737E-07 0.4246218 0.9053709
vn 0.4246214 1.759517E-09 0.905371
vn -1.47644E-07 -0.4246222 0.9053707
vn -4.237714E-08 7.326364E-08 1
vn 0.3512904 -1.338278E-08 -0.9362665
vn -8.933816E-09 0.9362667 0.35129
vn -0.3512894 4.278032E-09 -0.936267
vn 1.267676E-07 -4.080203E-15 -1
vn 1 2.4173E-07 2.337617E-07
vn 1.583742E-07 -4.967051E-07 -1
vn -1 -3.168544E-07 -1.788139E-07
vn 1.106477E-07 0.900396 0.4350715
vn 0.4350716 0.9003959 9.915593E-08
vn 1.852558E-07 0.9003959 -0.4350714
vn -0.4350713 0.900396 -8.69229E-08
vn -2.013957E-08 -6.082112E-08 1
vn 1.539786E-06 1 -1.290033E-08
vn -1.701456E-07 4.588227E-14 -1
vn -3.973643E-07 1 2.576189E-07
vn -3.675787E-14 -1 2.137783E-07
vn 2.42519E-06 4.561534E-08 1
vn 6.357847E-06 -1 1.518043E-07
vn -2.287852E-06 -4.561542E-08 -1
vn -1 -7.25443E-08 -5.427416E-07
vn 9.078722E-07 4.561564E-08 -1
vn -3.178911E-06 -1 -6.898262E-08
vn -1.271198E-06 -4.561559E-08 1
vn 1 1.201552E-08 8.156874E-07
vn -1 1.14267E-07 -5.27578E-07
vn 1 -3.289393E-07 4.745051E-07
vn 1 -2.975844E-07 5.199959E-07
vn 1 9.24321E-08 4.972506E-07
vn 1 1.787663E-07 -3.149623E-09
vn 9.074486E-08 -6.082103E-08 -1
vn 5.922651E-08 -1.216421E-07 -1
vn -2.171274E-08 1.338065E-07 -1
vn 4.254933E-08 -0.6686335 -0.7435921
vn 0.743592 -0.6686337 1.258553E-07
vn -1.709938E-07 -0.6686336 0.7435921
vn 1.313251E-07 1 -9.184477E-09
vn -0.7299863 -0.6399026 -0.2400933
vn 4.038989E-08 -0.9362668 -0.3512895
vn 0.7299863 -0.6399028 -0.2400929
vn 2.230275E-07 0.3512898 -0.9362668
vt 0.06483925 0.005370089
vt 0.1165047 0.03964374
vt 0.1011115 0.04356279
vt 0.06721379 0.02107586
vt -0.07998601 -0.01299195
vt -0.04833876 0.04032268
vt -0.063572 0.03696741
vt -0.08433576 0.001987676
vt -0.07958817 -0.01289158
vt -0.06030963 0.04603496
vt -0.07444672 0.03944313
vt -0.08709539 0.0007814346
vt 0.06364407 0.007358068
vt 0.1151881 0.04181405
vt 0.09978112 0.0456787
vt 0.0659631 0.02307213
vt 0.06753968 -0.04871153
vt 0.06446594 0.01321223
vt 0.05105975 0.001872755
vt 0.05307642 -0.03875542
vt -0.07114018 -0.1072391
vt -0.1107699 -0.05955803
vt -0.1365138 -0.06224721
vt -0.07849186 -0.132057
vt 0.04901656 0.03063765
vt -0.00988382 0.04999598
vt -0.004112107 0.03341294
vt 0.03453243 0.02071195
vt -0.04289031 0.03717699
vt -0.07461014 -0.0160945
vt -0.05716822 -0.01407239
vt -0.03635683 0.02087903
vt -0.06754729 -0.04376235
vt -0.01934058 -0.08275098
vt -0.0188561 -0.06519891
vt -0.05048453 -0.03961848
vt 0.0614199 -0.01550855
vt 0.04322805 0.02087513
vt 0.03786148 0.01819184
vt 0.05605333 -0.01819183
vt -0.04302718 0.03773696
vt -0.09312255 0.07426715
vt -0.09121761 0.05878552
vt -0.05835004 0.03481806
vt -0.01429932 0.09537915
vt -0.07113553 0.07060729
vt -0.05681307 0.06442856
vt -0.01952284 0.08068139
vt -0.01234324 0.1194855
vt -0.01443882 0.0575209
vt -0.002698391 0.06779085
vt -0.001323469 0.1084458
vt -0.06076016 0.03974861
vt -0.02765897 0.06339236
vt -0.05130272 0.09649356
vt -0.0844039 0.07284982
vt 0.1060733 -0.02877911
vt 0.1012165 0.03303036
vt 0.09031259 0.02147981
vt 0.09349915 -0.01907338
vt -0.04164585 0.1129812
vt -0.02933765 0.05221515
vt -0.01991323 0.06500147
vt -0.02798864 0.10487
vt -0.002096049 0.06115628
vt 0.05532805 0.03777952
vt 0.04989373 0.05270526
vt 0.01221779 0.06804275
vt 0.0607601 0.03974863
vt 0.08440383 0.07284985
vt 0.05130263 0.09649357
vt 0.02765891 0.06339236
vt 0.1056579 0.003094701
vt 0.07359017 0.05615748
vt 0.06902643 0.04094294
vt 0.09006608 0.00612846
vt 0.1104188 0.04486658
vt 0.05437281 0.0183553
vt 0.06904499 0.01226953
vt 0.1058168 0.02966358
vt 0.06157718 0.02898014
vt 0.07944909 -0.03038815
vt 0.08765138 -0.0167855
vt 0.07592561 0.02216603
vt 0.07900516 -0.006715936
vt 0.1153888 0.0114759
vt 0.097197 0.04785958
vt 0.06081331 0.02966774
vt -0.048212 0.03041283
vt -0.1009845 0.06295607
vt -0.09788699 0.04766833
vt -0.06326295 0.02631671
vt 0.05354748 0.03853615
vt 0.08171684 -0.01669506
vt 0.09266427 -0.01111158
vt 0.0644949 0.04411963
vt -0.1246602 0.01459924
vt -0.06856884 -0.0118159
vt -0.07336247 0.003027642
vt -0.110164 0.02035861
vt -0.07900515 -0.006715924
vt -0.06081332 0.02966776
vt -0.09719699 0.0478596
vt -0.1153888 0.01147592
vt 0.04933245 0.02374988
vt 0.01623126 0.04739363
vt 0.01274383 0.04251122
vt 0.04584502 0.01886748
vt -0.04322807 0.02087514
vt -0.06141992 -0.01550854
vt -0.05605335 -0.01819182
vt -0.0378615 0.01819186
vt -0.01623128 0.04739364
vt -0.04933247 0.0237499
vt -0.04584504 0.01886749
vt -0.01274384 0.04251123
vt 0.01482625 -0.03897083
vt -0.004477155 -0.003164494
vt -0.0225088 0.001221265
vt 0.008579534 -0.0564452
vt -0.01459523 -0.02892631
vt 0.02145062 -0.01007395
vt 0.02606241 0.00790122
vt -0.0319898 -0.02246071
vt -0.005264967 -0.001212204
vt -0.001055755 -0.04167203
vt 0.01394594 -0.05259557
vt 0.007166968 0.01256539
vt 0.01942534 -0.01368624
vt -0.01932353 -0.02606526
vt -0.02695506 -0.04298078
vt 0.0354504 -0.02304424
vt 0.05623993 -0.03198143
vt 0.02694178 0.02661485
vt -0.148366 -0.06103906
vt -0.1190678 -0.1196354
vt -0.04045252 -0.001963811
vt 0.02124347 0.02007051
vt 0.01619841 0.03419665
vt 0.0007744125 0.02868806
vt -0.01464958 0.02317948
vt -0.03007358 0.0176709
vt -0.04549757 0.01216231
vt -0.02694177 0.02661488
vt 0.002236113 -0.02459674
vt 0.06071214 -0.01721208
vt 0.04327774 -0.04162542
vt -0.01841824 -0.06365973
vt -0.01337321 -0.07778586
vt 0.04832277 -0.05575154
vt 0.01841821 -0.06365977
vt 0.04045249 -0.001963772
vt -0.0212435 0.02007054
vt -0.04327778 -0.04162546
vt 0.05623996 -0.03198153
vt -0.1190678 -0.1196354
vt -0.1123597 -0.1330518
vt -0.02470582 -0.08922488
vt 0.01912115 -0.06731142
vt 0.06294814 -0.04539795
vt 0.01841794 -0.06366072
vt -0.04327807 -0.04162647
vt -0.04832304 -0.05575257
vt 0.01337297 -0.07778683
vt 0.1190679 -0.1196352
vt 0.03141403 -0.0758083
vt -0.05623989 -0.03198137
vt -0.06294809 -0.04539776
vt -0.01912109 -0.06731123
vt 0.02470589 -0.0892247
vt 0.1123598 -0.1330516
vt 0.0008478475 0.04484618
vt -0.05246193 0.006767662
vt -0.02398121 -0.03310532
vt 0.02932856 0.0049732
vt -0.02694178 0.02661485
vt 0.06071212 -0.01721212
vt 0.1483659 -0.06103908
vt 0.1550742 -0.04762268
vt 0.06742035 -0.003795708
vt 0.02359341 0.01811778
vt -0.02023356 0.04003126
vt -0.02124328 0.02007101
vt 0.0404527 -0.001963335
vt 0.04549777 0.0121628
vt -0.0161982 0.03419715
vt -0.148366 -0.06103904
vt 0.02694175 0.0266149
vt 0.02023353 0.0400313
vt -0.02359345 0.0181178
vt -0.06742038 -0.003795683
vt -0.1550742 -0.04762265
vt 0.05246187 0.00676767
vt 0.03913442 0.01628728
vt 0.01065367 -0.02358569
vt 0.02398113 -0.0331053
vt 0.004499495 -0.07297827
vt 0.0614609 -0.1527241
vt 0.1147707 -0.1146457
vt 0.05780929 -0.03489978
vt 0.02932857 0.004973184
vt -0.02398121 -0.03310532
vt -0.05780933 -0.03489973
vt -0.1147707 -0.1146456
vt -0.06146089 -0.1527241
vt -0.004499519 -0.07297821
vt -0.02932864 0.004973215
vt -0.05780933 -0.03489973
vt -0.004499524 -0.07297821
vt 0.02398116 -0.03310528
vt 0.0106537 -0.02358568
vt -0.002673748 -0.01406605
vt -0.0160012 -0.004546435
vt 0.02580697 0.02580692
vt 0.01247952 0.03532654
vt -0.01600121 -0.004546437
vt -0.002673759 -0.01406606
vt 0.01065368 -0.02358569
vt 0.03913442 0.01628729
vt 0.01247951 0.03532654
vt -0.0008479358 0.04484617
vt -0.02932863 0.00497319
vt -0.0160012 -0.004546457
vt -0.05623993 -0.0319814
vt 0.03141398 -0.07580836
vt 0.002236107 -0.02459674
vt -0.02694177 0.02661487
vt -0.05623993 -0.0319814
vt 0.002236106 -0.02459674
vt 0.03141399 -0.07580836
vt 0.1190678 -0.1196353
vt 0.148366 -0.06103904
vt 0.06071214 -0.01721209
vt 0.002236115 -0.02459674
vt -0.1168874 0.01044358
vt -0.08457743 0.06335922
vt -0.09544434 0.08685152
vt -0.1427494 0.009377727
vt 0.007254335 0.09813472
vt 0.06589564 0.07800521
vt 0.08648932 0.09368569
vt 0.0006325765 0.1231573
vt 0.1109202 0.02484025
vt 0.1190941 -0.03661857
vt 0.1423202 -0.04804332
vt 0.1303528 0.04193854
vt -0.02606498 -0.07980289
vt 0.05942088 -0.0492722
vt 0.02889022 0.03621367
vt -0.05659565 0.005682978
vt -0.126403 -0.02182399
vt -0.1145156 -0.01172452
vt -0.1224724 -0.00235912
vt -0.1343598 -0.01245859
vt -0.07687306 -0.007198078
vt -0.05839116 0.02903912
vt -0.06933858 0.03462259
vt -0.08782049 -0.001614603
vt -0.02551026 0.08932173
vt -0.01803206 0.1030106
vt -0.02881677 0.1089023
vt -0.03629497 0.09521337
vt -0.09384955 0.04273052
vt -0.113948 -0.01592144
vt -0.09972034 -0.009527409
vt -0.08653375 0.02895413
o group2124956542
g mesh2124956542
usemtl mat18
f 4/4/1 3/3/1 2/2/1 1/1/1
f 8/8/2 7/7/2 6/6/2 5/5/2
f 10/12/3 9/11/3 5/10/3 1/9/3
f 14/16/4 13/15/4 12/14/4 11/13/4
f 16/20/5 15/19/5 11/18/5 1/17/5
f 15/28/7 20/27/7 6/26/7 11/25/7
f 20/32/8 21/31/8 5/30/8 6/29/8
f 21/36/9 16/35/9 1/34/9 5/33/9
f 23/40/10 22/39/10 15/38/10 16/37/10
f 9/44/11 24/43/11 17/42/11 5/41/11
f 24/48/12 25/47/12 2/46/12 17/45/12
f 25/52/13 10/51/13 1/50/13 2/49/13
f 25/56/14 24/55/14 9/54/14 10/53/14
f 13/60/15 27/59/15 26/58/15 12/57/15
f 27/64/16 28/63/16 6/62/16 26/61/16
f 28/68/17 14/67/17 11/66/17 6/65/17
f 28/72/18 27/71/18 13/70/18 14/69/18
f 3/76/19 29/75/19 12/74/19 2/73/19
f 29/80/20 30/79/20 11/78/20 12/77/20
f 30/84/21 4/83/21 1/82/21 11/81/21
f 30/88/22 29/87/22 3/86/22 4/85/22
f 7/92/23 31/91/23 26/90/23 6/89/23
f 33/96/24 32/95/24 17/94/24 26/93/24
f 34/100/25 8/99/25 5/98/25 17/97/25
f 34/104/26 31/103/26 7/102/26 8/101/26
f 22/108/27 35/107/27 20/106/27 15/105/27
f 35/112/28 36/111/28 21/110/28 20/109/28
f 36/116/29 23/115/29 16/114/29 21/113/29
usemtl mat5
f 19/24/6 18/23/6 17/22/6 2/21/6
f 38/120/30 37/119/30 22/118/30 23/117/30
f 37/124/31 39/123/31 35/122/31 22/121/31
f 39/128/32 40/127/32 36/126/32 35/125/32
f 40/132/33 38/131/33 23/130/33 36/129/33
f 47/143/35 46/142/35 45/141/35 44/140/35 43/139/35 39/138/35 37/137/35
f 49/146/36 48/145/36 39/144/36
f 51/150/37 50/149/37 38/148/37 40/147/37
f 53/154/38 52/153/38 41/152/38 42/151/38
f 50/160/39 56/159/39 55/158/39 54/157/39 42/156/39 38/155/39
f 59/175/42 56/174/42 50/173/42 51/172/42
f 64/192/45 66/191/45 65/190/45 47/189/45 37/188/45 41/187/45
f 65/196/46 67/195/46 46/194/46 47/193/46
f 56/202/47 59/201/47 60/200/47 57/199/47 54/198/47 55/197/47
f 66/206/48 64/205/48 61/204/48 62/203/48
f 69/213/49 68/212/49 67/211/49 65/210/49 66/209/49 62/208/49 63/207/49
f 46/219/50 67/218/50 68/217/50 69/216/50 44/215/50 45/214/50
f 69/223/51 63/222/51 43/221/51 44/220/51
f 48/226/52 58/225/52 40/224/52
f 48/234/54 49/233/54 52/232/54 53/231/54 58/230/54
f 18/238/55 70/237/55 26/236/55 17/235/55
f 70/242/56 71/241/56 12/240/56 26/239/56
f 71/246/57 19/245/57 2/244/57 12/243/57
f 71/250/58 70/249/58 18/248/58 19/247/58
usemtl mat23
f 42/136/34 41/135/34 37/134/34 38/133/34
f 57/171/41 60/170/41 59/169/41 51/168/41 40/167/41 58/166/41 53/165/41
f 43/182/43 63/181/43 62/180/43 61/179/43 52/178/43 49/177/43 39/176/43
f 48/229/53 40/228/53 39/227/53
f 32/254/59 72/253/59 34/252/59 17/251/59
f 72/258/60 73/257/60 31/256/60 34/255/60
f 73/262/61 33/261/61 26/260/61 31/259/61
f 73/266/62 72/265/62 32/264/62 33/263/62
usemtl mat21
f 54/164/40 57/163/40 53/162/40 42/161/40
f 61/186/44 64/185/44 41/184/44 52/183/44
